<mxfile host="app.diagrams.net" modified="2022-06-13T05:55:27.342Z" agent="5.0 (Windows NT 10.0; Win64; x64) AppleWebKit/537.36 (KHTML, like Gecko) Chrome/102.0.0.0 Safari/537.36" etag="STKOBLObamAY5POo2lf1" version="18.1.3" type="github">
  <diagram id="C5RBs43oDa-KdzZeNtuy" name="Page-1">
    <mxGraphModel dx="1422" dy="754" grid="1" gridSize="10" guides="1" tooltips="1" connect="1" arrows="1" fold="1" page="1" pageScale="1" pageWidth="1169" pageHeight="827" math="0" shadow="0">
      <root>
        <mxCell id="WIyWlLk6GJQsqaUBKTNV-0" />
        <mxCell id="WIyWlLk6GJQsqaUBKTNV-1" parent="WIyWlLk6GJQsqaUBKTNV-0" />
        <mxCell id="t3I_czFKezXpS0lLie-e-2" value="&lt;p style=&quot;margin:0px;margin-top:4px;text-align:center;&quot;&gt;&lt;b&gt;PessoaDeTi&lt;/b&gt;&lt;/p&gt;&lt;hr size=&quot;1&quot;&gt;&lt;p style=&quot;margin:0px;margin-left:4px;&quot;&gt;-&amp;nbsp; id: String&lt;/p&gt;&lt;p style=&quot;margin:0px;margin-left:4px;&quot;&gt;+ nome: String&lt;/p&gt;&lt;hr size=&quot;1&quot;&gt;&lt;p style=&quot;margin:0px;margin-left:4px;&quot;&gt;+ temAcessoLeitura(): boolean&lt;br&gt;+ temAcessoEscrita(): boolean&lt;/p&gt;" style="verticalAlign=top;align=left;overflow=fill;fontSize=12;fontFamily=Helvetica;html=1;" vertex="1" parent="WIyWlLk6GJQsqaUBKTNV-1">
          <mxGeometry x="550" y="20" width="180" height="110" as="geometry" />
        </mxCell>
        <mxCell id="t3I_czFKezXpS0lLie-e-3" value="&lt;p style=&quot;margin:0px;margin-top:4px;text-align:center;&quot;&gt;&lt;b&gt;Admin&lt;/b&gt;&lt;/p&gt;&lt;hr size=&quot;1&quot;&gt;&lt;p style=&quot;margin:0px;margin-left:4px;&quot;&gt;+ ultimoCertificado: LocalDate&lt;/p&gt;&lt;hr size=&quot;1&quot;&gt;&lt;p style=&quot;margin:0px;margin-left:4px;&quot;&gt;&lt;span style=&quot;background-color: initial;&quot;&gt;+ temAcessoLeitura(): boolean&lt;/span&gt;&lt;/p&gt;&lt;p style=&quot;margin: 0px 0px 0px 4px;&quot;&gt;+ temAcessoEscrita(): boolean&lt;/p&gt;" style="verticalAlign=top;align=left;overflow=fill;fontSize=12;fontFamily=Helvetica;html=1;" vertex="1" parent="WIyWlLk6GJQsqaUBKTNV-1">
          <mxGeometry x="100" y="280" width="180" height="90" as="geometry" />
        </mxCell>
        <mxCell id="t3I_czFKezXpS0lLie-e-4" value="&lt;p style=&quot;margin:0px;margin-top:4px;text-align:center;&quot;&gt;&lt;b&gt;Desenvolvedor&lt;/b&gt;&lt;/p&gt;&lt;hr size=&quot;1&quot;&gt;&lt;p style=&quot;margin:0px;margin-left:4px;&quot;&gt;+ emplomentDate: LocalDate&lt;/p&gt;&lt;hr size=&quot;1&quot;&gt;&lt;p style=&quot;margin: 0px 0px 0px 4px;&quot;&gt;&lt;span style=&quot;background-color: initial;&quot;&gt;+ temAcessoLeitura(): boolean&lt;/span&gt;&lt;/p&gt;&lt;p style=&quot;margin: 0px 0px 0px 4px;&quot;&gt;+ temAcessoEscrita(): boolean&lt;/p&gt;" style="verticalAlign=top;align=left;overflow=fill;fontSize=12;fontFamily=Helvetica;html=1;" vertex="1" parent="WIyWlLk6GJQsqaUBKTNV-1">
          <mxGeometry x="550" y="290" width="180" height="90" as="geometry" />
        </mxCell>
        <mxCell id="t3I_czFKezXpS0lLie-e-6" value="&lt;p style=&quot;margin:0px;margin-top:4px;text-align:center;&quot;&gt;&lt;b&gt;Suporte&lt;/b&gt;&lt;/p&gt;&lt;hr size=&quot;1&quot;&gt;&lt;p style=&quot;margin:0px;margin-left:4px;&quot;&gt;+ nivelSeguranca: Integer&lt;/p&gt;&lt;hr size=&quot;1&quot;&gt;&lt;p style=&quot;margin: 0px 0px 0px 4px;&quot;&gt;&lt;span style=&quot;background-color: initial;&quot;&gt;+ temAcessoLeitura(): boolean&lt;/span&gt;&lt;/p&gt;&lt;p style=&quot;margin: 0px 0px 0px 4px;&quot;&gt;+ temAcessoEscrita(): boolean&lt;/p&gt;" style="verticalAlign=top;align=left;overflow=fill;fontSize=12;fontFamily=Helvetica;html=1;" vertex="1" parent="WIyWlLk6GJQsqaUBKTNV-1">
          <mxGeometry x="940" y="280" width="180" height="90" as="geometry" />
        </mxCell>
        <mxCell id="t3I_czFKezXpS0lLie-e-8" value="Extends" style="endArrow=block;endSize=16;endFill=0;html=1;rounded=0;exitX=0.5;exitY=0;exitDx=0;exitDy=0;entryX=0.25;entryY=1;entryDx=0;entryDy=0;" edge="1" parent="WIyWlLk6GJQsqaUBKTNV-1" source="t3I_czFKezXpS0lLie-e-3" target="t3I_czFKezXpS0lLie-e-2">
          <mxGeometry width="160" relative="1" as="geometry">
            <mxPoint x="130" y="230" as="sourcePoint" />
            <mxPoint x="290" y="230" as="targetPoint" />
          </mxGeometry>
        </mxCell>
        <mxCell id="t3I_czFKezXpS0lLie-e-9" value="Extends" style="endArrow=block;endSize=16;endFill=0;html=1;rounded=0;exitX=0.5;exitY=0;exitDx=0;exitDy=0;entryX=0.5;entryY=1;entryDx=0;entryDy=0;" edge="1" parent="WIyWlLk6GJQsqaUBKTNV-1" source="t3I_czFKezXpS0lLie-e-4" target="t3I_czFKezXpS0lLie-e-2">
          <mxGeometry width="160" relative="1" as="geometry">
            <mxPoint x="360" y="240" as="sourcePoint" />
            <mxPoint x="520" y="240" as="targetPoint" />
          </mxGeometry>
        </mxCell>
        <mxCell id="t3I_czFKezXpS0lLie-e-10" value="Extends" style="endArrow=block;endSize=16;endFill=0;html=1;rounded=0;exitX=0.5;exitY=0;exitDx=0;exitDy=0;entryX=0.75;entryY=1;entryDx=0;entryDy=0;" edge="1" parent="WIyWlLk6GJQsqaUBKTNV-1" source="t3I_czFKezXpS0lLie-e-6" target="t3I_czFKezXpS0lLie-e-2">
          <mxGeometry width="160" relative="1" as="geometry">
            <mxPoint x="600" y="220" as="sourcePoint" />
            <mxPoint x="760" y="220" as="targetPoint" />
          </mxGeometry>
        </mxCell>
        <mxCell id="t3I_czFKezXpS0lLie-e-18" value="" style="edgeStyle=orthogonalEdgeStyle;rounded=0;orthogonalLoop=1;jettySize=auto;html=1;" edge="1" parent="WIyWlLk6GJQsqaUBKTNV-1" source="t3I_czFKezXpS0lLie-e-13" target="t3I_czFKezXpS0lLie-e-3">
          <mxGeometry relative="1" as="geometry" />
        </mxCell>
        <mxCell id="t3I_czFKezXpS0lLie-e-13" value="O administrador deve ser certificado&amp;nbsp;todos os anos.&lt;br&gt;Se a última certificação tiver expirado (ou seja,&lt;br&gt;&amp;nbsp;passado mais de um ano),&lt;br&gt;apenas o acesso de leitura será concedido." style="html=1;dropTarget=0;" vertex="1" parent="WIyWlLk6GJQsqaUBKTNV-1">
          <mxGeometry x="50" y="441" width="280" height="110" as="geometry" />
        </mxCell>
        <mxCell id="t3I_czFKezXpS0lLie-e-14" value="" style="shape=module;jettyWidth=8;jettyHeight=4;" vertex="1" parent="t3I_czFKezXpS0lLie-e-13">
          <mxGeometry x="1" width="20" height="20" relative="1" as="geometry">
            <mxPoint x="-27" y="7" as="offset" />
          </mxGeometry>
        </mxCell>
        <mxCell id="t3I_czFKezXpS0lLie-e-21" value="" style="edgeStyle=orthogonalEdgeStyle;rounded=0;orthogonalLoop=1;jettySize=auto;html=1;" edge="1" parent="WIyWlLk6GJQsqaUBKTNV-1" source="t3I_czFKezXpS0lLie-e-19" target="t3I_czFKezXpS0lLie-e-4">
          <mxGeometry relative="1" as="geometry" />
        </mxCell>
        <mxCell id="t3I_czFKezXpS0lLie-e-19" value="Os desenvolvedores sempre têm acesso de leitura, &lt;br&gt;mas somente após o período de teste de 6&lt;br&gt;meses são atribuídos acesso de gravação." style="html=1;dropTarget=0;" vertex="1" parent="WIyWlLk6GJQsqaUBKTNV-1">
          <mxGeometry x="500" y="450" width="280" height="110" as="geometry" />
        </mxCell>
        <mxCell id="t3I_czFKezXpS0lLie-e-20" value="" style="shape=module;jettyWidth=8;jettyHeight=4;" vertex="1" parent="t3I_czFKezXpS0lLie-e-19">
          <mxGeometry x="1" width="20" height="20" relative="1" as="geometry">
            <mxPoint x="-27" y="7" as="offset" />
          </mxGeometry>
        </mxCell>
        <mxCell id="t3I_czFKezXpS0lLie-e-24" value="" style="edgeStyle=orthogonalEdgeStyle;rounded=0;orthogonalLoop=1;jettySize=auto;html=1;" edge="1" parent="WIyWlLk6GJQsqaUBKTNV-1" source="t3I_czFKezXpS0lLie-e-22" target="t3I_czFKezXpS0lLie-e-6">
          <mxGeometry relative="1" as="geometry" />
        </mxCell>
        <mxCell id="t3I_czFKezXpS0lLie-e-22" value="O suporte tem diferentes níveis de segurança, &lt;br&gt;o nível 0 não pode ler ou escrever, &lt;br&gt;o nível 1 pode ler e o nível 2 pode ler e escrever." style="html=1;dropTarget=0;" vertex="1" parent="WIyWlLk6GJQsqaUBKTNV-1">
          <mxGeometry x="895" y="450" width="270" height="110" as="geometry" />
        </mxCell>
        <mxCell id="t3I_czFKezXpS0lLie-e-23" value="" style="shape=module;jettyWidth=8;jettyHeight=4;" vertex="1" parent="t3I_czFKezXpS0lLie-e-22">
          <mxGeometry x="1" width="20" height="20" relative="1" as="geometry">
            <mxPoint x="-27" y="7" as="offset" />
          </mxGeometry>
        </mxCell>
      </root>
    </mxGraphModel>
  </diagram>
</mxfile>
